<svg xmlns="http://www.w3.org/2000/svg" viewBox="0 0 53 50.75"><defs><style>.cls-1{fill:#7f7f7f;stroke:#7f7f7f;stroke-miterlimit:10;stroke-width:4px;opacity:0.5;}</style></defs><title>empty_star</title><g id="Layer_5" data-name="Layer 5"><path class="cls-1" d="M28.1,3.13,32.73,17.4a1.68,1.68,0,0,0,1.59,1.16h15a1.68,1.68,0,0,1,1,3L38.17,30.4a1.71,1.71,0,0,0-.61,1.88L42.2,46.54a1.68,1.68,0,0,1-2.58,1.88L27.49,39.6a1.67,1.67,0,0,0-2,0L13.38,48.42a1.68,1.68,0,0,1-2.58-1.88l4.64-14.26a1.69,1.69,0,0,0-.61-1.88L2.7,21.59a1.67,1.67,0,0,1,1-3h15a1.68,1.68,0,0,0,1.59-1.16L24.91,3.13A1.68,1.68,0,0,1,28.1,3.13Z"/></g></svg>