<svg xmlns="http://www.w3.org/2000/svg" viewBox="0 0 337.52 166.34"><defs><style>.cls-1,.cls-3{fill:none;}.cls-1,.cls-2{stroke:#2f637a;}.cls-1,.cls-2,.cls-3{stroke-linecap:round;stroke-linejoin:round;stroke-width:5px;}.cls-2{fill:#e39959;}.cls-3{stroke:#e39959;}</style></defs><title>logo</title><g id="Layer_2" data-name="Layer 2"><polyline class="cls-1" points="36.31 129.71 92.88 18.71 149.45 129.71"/><polygon class="cls-1" points="55.88 89.71 55.88 15.71 65.88 15.71 65.88 71.69 55.88 89.71"/><path class="cls-1" d="M167.62,15.71H102.88v1l57.86,113h6.88a37.37,37.37,0,0,0,37.26-37.26V53A37.37,37.37,0,0,0,167.62,15.71Z"/><polygon class="cls-2" points="116.32 89.71 92.88 43.71 69.44 89.71 116.32 89.71"/><path class="cls-1" d="M214.88,18.54V94.45c0,20.49,12.93,37.26,28.73,37.26h25c15.8,0,28.73-16.77,28.73-37.26V18.54"/><line class="cls-1" x1="10.88" y1="138.71" x2="325.38" y2="138.71"/><line class="cls-3" x1="10.88" y1="147.71" x2="325.38" y2="147.71"/><line class="cls-1" x1="10.88" y1="156.71" x2="325.38" y2="156.71"/></g></svg>