<svg xmlns="http://www.w3.org/2000/svg" viewBox="0 0 309.81 50.68"><defs><style>.cls-1,.cls-2{fill:#7f7f7f;stroke:#7f7f7f;stroke-miterlimit:10;stroke-width:4px;}.cls-2{opacity:0.5;}</style></defs><title>stars_4</title><g id="Layer_5" data-name="Layer 5"><path class="cls-1" d="M92.93,3.09l4.64,14.26a1.67,1.67,0,0,0,1.59,1.16h15a1.67,1.67,0,0,1,1,3L103,30.36a1.67,1.67,0,0,0-.61,1.87L107,46.49a1.68,1.68,0,0,1-2.58,1.88L92.32,39.55a1.7,1.7,0,0,0-2,0L78.22,48.37a1.68,1.68,0,0,1-2.58-1.88l4.63-14.26a1.66,1.66,0,0,0-.61-1.87L67.53,21.54a1.68,1.68,0,0,1,1-3h15a1.69,1.69,0,0,0,1.6-1.16L89.74,3.09A1.68,1.68,0,0,1,92.93,3.09Z"/><path class="cls-1" d="M156.93,3.09l4.64,14.26a1.67,1.67,0,0,0,1.59,1.16h15a1.67,1.67,0,0,1,1,3L167,30.36a1.67,1.67,0,0,0-.61,1.87L171,46.49a1.68,1.68,0,0,1-2.58,1.88l-12.13-8.82a1.7,1.7,0,0,0-2,0l-12.13,8.82a1.68,1.68,0,0,1-2.58-1.88l4.63-14.26a1.66,1.66,0,0,0-.61-1.87l-12.13-8.82a1.68,1.68,0,0,1,1-3h15a1.69,1.69,0,0,0,1.6-1.16l4.63-14.26A1.68,1.68,0,0,1,156.93,3.09Z"/><path class="cls-1" d="M28.93,3.09l4.64,14.26a1.67,1.67,0,0,0,1.59,1.16h15a1.67,1.67,0,0,1,1,3L39,30.36a1.67,1.67,0,0,0-.61,1.87L43,46.49a1.68,1.68,0,0,1-2.58,1.88L28.32,39.55a1.7,1.7,0,0,0-2,0L14.22,48.37a1.68,1.68,0,0,1-2.58-1.88l4.63-14.26a1.66,1.66,0,0,0-.61-1.87L3.53,21.54a1.68,1.68,0,0,1,1-3h15a1.69,1.69,0,0,0,1.6-1.16L25.74,3.09A1.68,1.68,0,0,1,28.93,3.09Z"/><path class="cls-1" d="M220.93,3.09l4.64,14.26a1.67,1.67,0,0,0,1.59,1.16h15a1.67,1.67,0,0,1,1,3L231,30.36a1.67,1.67,0,0,0-.61,1.87L235,46.49a1.68,1.68,0,0,1-2.58,1.88l-12.13-8.82a1.7,1.7,0,0,0-2,0l-12.13,8.82a1.68,1.68,0,0,1-2.58-1.88l4.63-14.26a1.66,1.66,0,0,0-.61-1.87l-12.13-8.82a1.68,1.68,0,0,1,1-3h15a1.69,1.69,0,0,0,1.6-1.16l4.63-14.26A1.68,1.68,0,0,1,220.93,3.09Z"/><path class="cls-2" d="M284.93,3.09l4.64,14.26a1.67,1.67,0,0,0,1.59,1.16h15a1.67,1.67,0,0,1,1,3L295,30.36a1.67,1.67,0,0,0-.61,1.87L299,46.49a1.68,1.68,0,0,1-2.58,1.88l-12.13-8.82a1.7,1.7,0,0,0-2,0l-12.13,8.82a1.68,1.68,0,0,1-2.58-1.88l4.63-14.26a1.66,1.66,0,0,0-.61-1.87l-12.13-8.82a1.68,1.68,0,0,1,1-3h15a1.69,1.69,0,0,0,1.6-1.16l4.63-14.26A1.68,1.68,0,0,1,284.93,3.09Z"/></g></svg>